<?xml version="1.0" encoding="utf-8"?>
<!-- Generator: Adobe Illustrator 26.5.0, SVG Export Plug-In . SVG Version: 6.00 Build 0)  -->
<svg version="1.1" id="icons" xmlns="http://www.w3.org/2000/svg" xmlns:xlink="http://www.w3.org/1999/xlink" x="0px" y="0px"
	 viewBox="0 0 388.3 77.3" style="enable-background:new 0 0 388.3 77.3;" xml:space="preserve">
<style type="text/css">
	.st0{fill:url(#SVGID_1_);}
	.st1{fill:url(#SVGID_00000076597659441298248920000014363349543923599789_);}
	.st2{fill:url(#SVGID_00000169546436592936432180000012321682076773000349_);}
	.st3{fill:url(#SVGID_00000045600668162376133490000007525992315603615105_);}
	.st4{fill:url(#SVGID_00000113312239736872957700000008273893775002985097_);}
	.st5{fill:url(#SVGID_00000094612709424438083260000017175465830759605647_);}
	.st6{fill:url(#SVGID_00000039108852589361755840000003716064803571213718_);}
	.st7{fill:url(#SVGID_00000134941740733463964020000001875252111930129844_);}
	.st8{fill:url(#SVGID_00000136411895593407926820000010167435960789131656_);}
	.st9{fill:url(#SVGID_00000137129039789500713480000008521336016691298987_);}
	.st10{fill:url(#SVGID_00000035529252967041884040000008826276986567912608_);}
	.st11{fill:url(#SVGID_00000165235979346344699890000006779177280712051330_);}
	.st12{fill:url(#SVGID_00000059281681001638923440000009614431041925010312_);}
</style>
<g>
	<g>
		<g>
			<linearGradient id="SVGID_1_" gradientUnits="userSpaceOnUse" x1="104.2174" y1="78.4577" x2="112.7245" y2="-16.3364">
				<stop  offset="0" style="stop-color:#DC3EFF"/>
				<stop  offset="0.5335" style="stop-color:#2E3EFF"/>
				<stop  offset="1" style="stop-color:#00FFFF"/>
			</linearGradient>
			<polygon class="st0" points="106.7,13.1 87.7,51.1 94.7,51.1 106.7,27.3 118.6,51.1 125.7,51.1 			"/>
			<g>
				
					<linearGradient id="SVGID_00000030486957151141792840000015879097934795157390_" gradientUnits="userSpaceOnUse" x1="122.2665" y1="80.0775" x2="130.7737" y2="-14.7166">
					<stop  offset="0" style="stop-color:#DC3EFF"/>
					<stop  offset="0.5335" style="stop-color:#2E3EFF"/>
					<stop  offset="1" style="stop-color:#00FFFF"/>
				</linearGradient>
				<path style="fill:url(#SVGID_00000030486957151141792840000015879097934795157390_);" d="M133.4,37.4l7.8,13.6H134l-11-19l5.7,0
					c1.7,0,3.2-0.6,4.4-1.9c1.3-1.2,1.9-2.8,1.9-4.5c0-1.7-0.6-3.2-1.9-4.4c-1.2-1.2-2.7-1.9-4.4-1.9h-12.7l-0.7-0.7l-3.3-5.7h16.7
					c3.5,0,6.5,1.2,8.9,3.7c2.5,2.5,3.7,5.5,3.7,8.9c0,2.7-0.7,5-2.2,7.2C137.5,35,135.7,36.5,133.4,37.4z"/>
				
					<linearGradient id="SVGID_00000142892429468519850170000010889351182873824397_" gradientUnits="userSpaceOnUse" x1="158.8913" y1="83.3643" x2="167.3984" y2="-11.4297">
					<stop  offset="0" style="stop-color:#DC3EFF"/>
					<stop  offset="0.5335" style="stop-color:#2E3EFF"/>
					<stop  offset="1" style="stop-color:#00FFFF"/>
				</linearGradient>
				<path style="fill:url(#SVGID_00000142892429468519850170000010889351182873824397_);" d="M176.9,18.7c3.8,3.7,5.7,8.2,5.7,13.4
					c0,5.3-1.9,9.7-5.7,13.4c-3.7,3.7-8.1,5.6-13.4,5.6c-5.3,0-9.7-1.9-13.4-5.6c-3.7-3.7-5.6-8.1-5.6-13.4c0-5.2,1.9-9.7,5.6-13.4
					c3.7-3.7,8.1-5.6,13.4-5.6C168.7,13.1,173.2,15,176.9,18.7z M154.5,23.1c-2.5,2.5-3.7,5.5-3.7,8.9c0,3.5,1.2,6.5,3.7,9
					c2.5,2.5,5.5,3.7,9,3.7c3.5,0,6.5-1.2,8.9-3.7c2.5-2.5,3.7-5.5,3.7-9c0-3.5-1.2-6.5-3.7-8.9c-2.5-2.5-5.5-3.7-8.9-3.7
					C160,19.4,157,20.6,154.5,23.1z"/>
			</g>
			<g>
				
					<linearGradient id="SVGID_00000181045787298327366770000007961820718860188568_" gradientUnits="userSpaceOnUse" x1="73.4398" y1="75.6956" x2="81.947" y2="-19.0984">
					<stop  offset="0" style="stop-color:#DC3EFF"/>
					<stop  offset="0.5335" style="stop-color:#2E3EFF"/>
					<stop  offset="1" style="stop-color:#00FFFF"/>
				</linearGradient>
				<path style="fill:url(#SVGID_00000181045787298327366770000007961820718860188568_);" d="M90.6,13.1v6.4h-19l-6.3-6.4H90.6z
					 M71.6,32h19v6.4h-19v12.6h-6.3V32H71.6z"/>
			</g>
		</g>
		<g>
			<g>
				
					<linearGradient id="SVGID_00000160883713639093749670000003700972313628001418_" gradientUnits="userSpaceOnUse" x1="206.1296" y1="87.6036" x2="214.6368" y2="-7.1904">
					<stop  offset="0" style="stop-color:#DC3EFF"/>
					<stop  offset="0.5335" style="stop-color:#2E3EFF"/>
					<stop  offset="1" style="stop-color:#00FFFF"/>
				</linearGradient>
				<path style="fill:url(#SVGID_00000160883713639093749670000003700972313628001418_);" d="M228,25.8c0,3.5-1.2,6.5-3.7,9
					c-2.5,2.5-5.5,3.7-8.9,3.7h-12.7v12.6h-6.3v-19h6.3h12.7c1.7,0,3.2-0.6,4.4-1.8c1.2-1.2,1.9-2.7,1.9-4.5c0-1.7-0.6-3.2-1.9-4.5
					c-1.2-1.2-2.7-1.8-4.4-1.8h-12.7l-6.3-6.4h19c3.5,0,6.4,1.2,8.9,3.7C226.8,19.3,228,22.3,228,25.8z"/>
			</g>
			<g>
				
					<linearGradient id="SVGID_00000079447391611523540410000017643278170235777180_" gradientUnits="userSpaceOnUse" x1="236.2662" y1="90.3082" x2="244.7734" y2="-4.4858">
					<stop  offset="0" style="stop-color:#DC3EFF"/>
					<stop  offset="0.5335" style="stop-color:#2E3EFF"/>
					<stop  offset="1" style="stop-color:#00FFFF"/>
				</linearGradient>
				<path style="fill:url(#SVGID_00000079447391611523540410000017643278170235777180_);" d="M248.3,37.5l7.8,13.6h-7.3l-11-19
					l5.6,0c1.7,0,3.2-0.6,4.4-1.8c1.3-1.2,1.9-2.7,1.9-4.5c0-1.7-0.6-3.2-1.9-4.4c-1.2-1.2-2.7-1.8-4.4-1.8h-12.7l-0.7-0.7l-3.3-5.6
					h16.6c3.5,0,6.4,1.2,8.9,3.7c2.5,2.5,3.7,5.5,3.7,8.9c0,2.7-0.7,5-2.2,7.2C252.4,35,250.6,36.5,248.3,37.5z"/>
				
					<linearGradient id="SVGID_00000176021877188584836110000001898510629300173714_" gradientUnits="userSpaceOnUse" x1="272.7692" y1="93.5841" x2="281.2763" y2="-1.2099">
					<stop  offset="0" style="stop-color:#DC3EFF"/>
					<stop  offset="0.5335" style="stop-color:#2E3EFF"/>
					<stop  offset="1" style="stop-color:#00FFFF"/>
				</linearGradient>
				<path style="fill:url(#SVGID_00000176021877188584836110000001898510629300173714_);" d="M291.6,18.7c3.7,3.7,5.6,8.2,5.6,13.4
					c0,5.3-1.9,9.7-5.6,13.4c-3.7,3.7-8.1,5.6-13.4,5.6c-5.3,0-9.7-1.9-13.4-5.6c-3.7-3.7-5.6-8.1-5.6-13.4c0-5.2,1.9-9.7,5.6-13.4
					c3.7-3.7,8.1-5.6,13.4-5.6C283.5,13.1,287.9,15,291.6,18.7z M269.3,23.2c-2.5,2.5-3.6,5.5-3.6,8.9c0,3.5,1.2,6.5,3.6,9
					c2.5,2.5,5.5,3.6,9,3.6c3.5,0,6.4-1.2,8.9-3.6c2.5-2.5,3.7-5.5,3.7-9c0-3.5-1.2-6.4-3.7-8.9c-2.5-2.5-5.5-3.7-8.9-3.7
					C274.8,19.5,271.8,20.7,269.3,23.2z"/>
				
					<linearGradient id="SVGID_00000017498443761075619540000008733274181475160736_" gradientUnits="userSpaceOnUse" x1="299.2863" y1="95.9639" x2="307.7934" y2="1.1698">
					<stop  offset="0" style="stop-color:#DC3EFF"/>
					<stop  offset="0.5335" style="stop-color:#2E3EFF"/>
					<stop  offset="1" style="stop-color:#00FFFF"/>
				</linearGradient>
				<polygon style="fill:url(#SVGID_00000017498443761075619540000008733274181475160736_);" points="309.6,13.1 303.3,13.1 
					290.7,13.1 297,19.5 303.3,19.5 303.3,51 309.6,51 309.6,51 309.6,51 309.6,19.5 322.2,19.5 322.2,13.1 				"/>
				
					<linearGradient id="SVGID_00000140716796064398091480000000158896595664465288_" gradientUnits="userSpaceOnUse" x1="332.4025" y1="98.9358" x2="340.9097" y2="4.1418">
					<stop  offset="0" style="stop-color:#DC3EFF"/>
					<stop  offset="0.5335" style="stop-color:#2E3EFF"/>
					<stop  offset="1" style="stop-color:#00FFFF"/>
				</linearGradient>
				<path style="fill:url(#SVGID_00000140716796064398091480000000158896595664465288_);" d="M351,13.1v6.3h-18.9l-6.3-6.3H351z
					 M351,13.1v6.3h-18.9l-6.3-6.3H351z M332.1,28.9H351v6.3h-18.9h-6.3v-6.3H332.1z M332.1,44.7H351V51h-25.2v-0.5L332.1,44.7z"/>
				
					<linearGradient id="SVGID_00000035511704041297411650000014334288581921830313_" gradientUnits="userSpaceOnUse" x1="363.7319" y1="101.7474" x2="372.239" y2="6.9534">
					<stop  offset="0" style="stop-color:#DC3EFF"/>
					<stop  offset="0.5335" style="stop-color:#2E3EFF"/>
					<stop  offset="1" style="stop-color:#00FFFF"/>
				</linearGradient>
				<path style="fill:url(#SVGID_00000035511704041297411650000014334288581921830313_);" d="M372.9,44.7c-3.5,0-6.5-1.2-8.9-3.6
					c-2.5-2.5-3.6-5.5-3.6-8.9c0-3.5,1.2-6.4,3.6-8.9c2.5-2.5,5.5-3.7,8.9-3.7c2.1,0,4,0.5,5.7,1.4l6.1-3.5
					c-3.4-2.8-7.3-4.2-11.8-4.2c-5.3,0-9.7,1.9-13.4,5.6c-3.7,3.7-5.6,8.1-5.6,13.4c0,5.3,1.9,9.7,5.6,13.4s8.1,5.6,13.4,5.6
					c4.5,0,8.5-1.4,11.8-4.2l-6.1-3.5C376.9,44.2,375,44.7,372.9,44.7z"/>
			</g>
		</g>
	</g>
	<g>
		
			<linearGradient id="SVGID_00000041977939063114989990000007646930947027800196_" gradientUnits="userSpaceOnUse" x1="-7.2824" y1="30.2703" x2="28.3684" y2="11.3646">
			<stop  offset="0" style="stop-color:#DC3EFF"/>
			<stop  offset="0.5335" style="stop-color:#2E3EFF"/>
			<stop  offset="1" style="stop-color:#00FFFF"/>
		</linearGradient>
		<path style="fill:url(#SVGID_00000041977939063114989990000007646930947027800196_);" d="M27.3,6c-10,0-18.1,2.7-18.1,6
			c0,1.9,2.5,3.4,6.6,4.5c-1.3-0.7-1.9-1.3-1.9-2.1c0-2.4,5.9-4.4,13.2-4.4c0.1,0,0.2,0,0.2,0c0.1,0,0.2,0,0.2,0
			c7.3,0,13.2,2,13.2,4.4c0,0.9-0.6,1.5-1.9,2.1c4.1-1.1,6.6-2.6,6.6-4.5C45.5,8.6,37.3,6,27.3,6z"/>
		
			<linearGradient id="SVGID_00000162333940457487577120000002666024010705014207_" gradientUnits="userSpaceOnUse" x1="-1.2386" y1="41.6672" x2="34.4122" y2="22.7615">
			<stop  offset="0" style="stop-color:#DC3EFF"/>
			<stop  offset="0.5335" style="stop-color:#2E3EFF"/>
			<stop  offset="1" style="stop-color:#00FFFF"/>
		</linearGradient>
		<path style="fill:url(#SVGID_00000162333940457487577120000002666024010705014207_);" d="M27.3,18.7c-13.1,0-23.8,3.5-23.8,7.9
			c0,2.5,3.3,4.4,8.7,5.8c-1.7-0.9-2.5-1.7-2.5-2.8c0-3.2,7.8-5.8,17.3-5.8c0.1,0,0.2,0,0.3,0c0.1,0,0.2,0,0.3,0
			c9.6,0,17.3,2.6,17.3,5.8c0,1.1-0.8,1.9-2.5,2.8c5.4-1.4,8.7-3.4,8.7-5.8C51.1,22.2,40.5,18.7,27.3,18.7z"/>
		<g>
			
				<linearGradient id="SVGID_00000096031465288845450150000007507199275744946061_" gradientUnits="userSpaceOnUse" x1="6.2537" y1="55.7957" x2="41.9045" y2="36.8899">
				<stop  offset="0" style="stop-color:#DC3EFF"/>
				<stop  offset="0.5335" style="stop-color:#2E3EFF"/>
				<stop  offset="1" style="stop-color:#00FFFF"/>
			</linearGradient>
			<path style="fill:url(#SVGID_00000096031465288845450150000007507199275744946061_);" d="M8.8,71.3c0.4-0.5,0.6-0.7,0.9-1
				c7.9-8.5,30.8-20.5,33.2-21.7c1.7-0.8,3.5-1.7,5-2.8c3.1-2.4,2.8-5.4-0.5-7.4c-1.2-0.7-2.5-1.3-3.8-1.6
				c-9.7-2.7-19.5-2.9-29.3-0.9c-2.7,0.6-5.4,1.2-7.7,2.9c-2.7,2-2.7,4.6-0.1,6.5c1.3,1,3,1.5,4.4,2.3c0.3,0.2,0.7,0.7,0.7,1
				c-0.1,1.4-0.3,2.8-0.5,4.2C10.4,59,9.6,65,8.8,71.3z"/>
		</g>
	</g>
</g>
</svg>
